<svg width="32" height="34" viewBox="0 0 32 34" fill="none" xmlns="http://www.w3.org/2000/svg">
<path d="M23.3991 1.77495C23.3991 1.35724 23.565 0.956628 23.8604 0.661258C24.1557 0.365888 24.5563 0.199951 24.9741 0.199951H30.2241C30.6418 0.199951 31.0424 0.365888 31.3377 0.661258C31.6331 0.956628 31.7991 1.35724 31.7991 1.77495V7.02495C31.7991 7.44267 31.6331 7.84327 31.3377 8.13864C31.0424 8.43401 30.6418 8.59995 30.2241 8.59995C29.8063 8.59995 29.4057 8.43401 29.1104 8.13864C28.815 7.84327 28.6491 7.44267 28.6491 7.02495V5.57595L19.2621 14.9629C18.9667 15.2579 18.5664 15.4236 18.1491 15.4236C17.7317 15.4236 17.3314 15.2579 17.0361 14.9629L11.8491 9.77595L2.98705 18.6379C2.84286 18.7927 2.66898 18.9168 2.47578 19.0029C2.28258 19.089 2.07403 19.1353 1.86255 19.139C1.65107 19.1427 1.44101 19.1038 1.2449 19.0246C1.04878 18.9454 0.870632 18.8275 0.721072 18.6779C0.571513 18.5284 0.453609 18.3502 0.374395 18.1541C0.295181 17.958 0.256279 17.7479 0.260011 17.5365C0.263742 17.325 0.31003 17.1164 0.396113 16.9232C0.482196 16.73 0.606311 16.5561 0.761053 16.412L10.7361 6.43695C11.0314 6.142 11.4317 5.97634 11.8491 5.97634C12.2664 5.97634 12.6667 6.142 12.9621 6.43695L18.1491 11.624L26.423 3.34995H24.9741C24.5563 3.34995 24.1557 3.18401 23.8604 2.88864C23.565 2.59327 23.3991 2.19267 23.3991 1.77495ZM1.87405 25.4C2.29177 25.4 2.69238 25.5659 2.98775 25.8613C3.28312 26.1566 3.44905 26.5572 3.44905 26.975V32.2249C3.44905 32.6427 3.28312 33.0433 2.98775 33.3386C2.69238 33.634 2.29177 33.7999 1.87405 33.7999C1.45634 33.7999 1.05573 33.634 0.76036 33.3386C0.46499 33.0433 0.299053 32.6427 0.299053 32.2249V26.975C0.299053 26.5572 0.46499 26.1566 0.76036 25.8613C1.05573 25.5659 1.45634 25.4 1.87405 25.4ZM11.8491 20.6749C11.8491 20.2572 11.6831 19.8566 11.3877 19.5613C11.0924 19.2659 10.6918 19.1 10.2741 19.1C9.85634 19.1 9.45573 19.2659 9.16036 19.5613C8.86499 19.8566 8.69905 20.2572 8.69905 20.6749V32.2249C8.69905 32.6427 8.86499 33.0433 9.16036 33.3386C9.45573 33.634 9.85634 33.7999 10.2741 33.7999C10.6918 33.7999 11.0924 33.634 11.3877 33.3386C11.6831 33.0433 11.8491 32.6427 11.8491 32.2249V20.6749ZM18.6741 23.2999C19.0918 23.2999 19.4924 23.4659 19.7877 23.7613C20.0831 24.0566 20.2491 24.4572 20.2491 24.875V32.2249C20.2491 32.6427 20.0831 33.0433 19.7877 33.3386C19.4924 33.634 19.0918 33.7999 18.6741 33.7999C18.2563 33.7999 17.8557 33.634 17.5604 33.3386C17.265 33.0433 17.0991 32.6427 17.0991 32.2249V24.875C17.0991 24.4572 17.265 24.0566 17.5604 23.7613C17.8557 23.4659 18.2563 23.2999 18.6741 23.2999ZM28.6491 16.475C28.6491 16.0572 28.4831 15.6566 28.1877 15.3613C27.8924 15.0659 27.4918 14.9 27.0741 14.9C26.6563 14.9 26.2557 15.0659 25.9604 15.3613C25.665 15.6566 25.4991 16.0572 25.4991 16.475V32.2249C25.4991 32.6427 25.665 33.0433 25.9604 33.3386C26.2557 33.634 26.6563 33.7999 27.0741 33.7999C27.4918 33.7999 27.8924 33.634 28.1877 33.3386C28.4831 33.0433 28.6491 32.6427 28.6491 32.2249V16.475Z" fill="#185CFF"/>
</svg>
