<svg class="border shadow-md" viewBox="0 0 1062.2577777777778 597.52" xmlns="http://www.w3.org/2000/svg" preserveAspectRatio="none" style="width: 1062.26px; height: 597.52px;"><rect class="bg" id="bg" x="0" y="0" width="1062.2577777777778" height="597.52" fill="#ffffff"/><defs><filter id="f1" x="-200%" y="-200%" width="500%" height="500%"><feGaussianBlur stdDeviation="25"/></filter></defs><g transform="translate(-156.60190486122383 -301.35991732885) rotate(15 452.78748970709785 3.3347799553108644 )"><rect x="8" y="8" opacity="0.4" width="3656.33636740993" height="609.3893945683217" fill="#FFF" filter="url(#f1)"/><rect x="-8" y="-8" opacity="0.4" width="3656.33636740993" height="609.3893945683217" fill="#0e151e" filter="url(#f1)"/><rect x="0" y="0" width="3656.33636740993" height="609.3893945683217" fill="#FFF"/></g><g transform="translate(-430.15350532367324 153.906398684951) rotate(24 179.23588924464843 458.60109596911184 )"><rect x="8" y="8" opacity="0.4" width="3656.33636740993" height="609.3893945683217" fill="#0c213c" filter="url(#f1)"/><rect x="-8" y="-8" opacity="0.4" width="3656.33636740993" height="609.3893945683217" fill="#0b274b" filter="url(#f1)"/><rect x="0" y="0" width="3656.33636740993" height="609.3893945683217" fill="#007AFF"/></g><g transform="translate(-961.2015007102038 144.6369214454794) rotate(10 -351.8121061418822 449.33161872964024 )"><rect x="8" y="8" opacity="0.4" width="3656.33636740993" height="609.3893945683217" fill="#093369" filter="url(#f1)"/><rect x="-8" y="-8" opacity="0.4" width="3656.33636740993" height="609.3893945683217" fill="#083978" filter="url(#f1)"/><rect x="0" y="0" width="3656.33636740993" height="609.3893945683217" fill="#073f87"/></g><g transform="translate(-1218.697895634285 -319.89887180779345) rotate(23 -609.3085010659634 -15.204174523632616 )"><rect x="8" y="8" opacity="0.4" width="3656.33636740993" height="609.3893945683217" fill="#064596" filter="url(#f1)"/><rect x="-8" y="-8" opacity="0.4" width="3656.33636740993" height="609.3893945683217" fill="#054ba5" filter="url(#f1)"/><rect x="0" y="0" width="3656.33636740993" height="609.3893945683217" fill="#0451b4"/></g><g transform="translate(-945.1462951718355 -775.1651878215945) rotate(11 -335.7569006035138 -470.47049053743365 )"><rect x="8" y="8" opacity="0.4" width="3656.33636740993" height="609.3893945683217" fill="#0357c3" filter="url(#f1)"/><rect x="-8" y="-8" opacity="0.4" width="3656.33636740993" height="609.3893945683217" fill="#025dd2" filter="url(#f1)"/><rect x="0" y="0" width="3656.33636740993" height="609.3893945683217" fill="#0163e1"/></g><g transform="translate(-414.098299785305 -765.8957105821228) rotate(16 195.29109478301666 -461.20101329796194 )"><rect x="8" y="8" opacity="0.4" width="3656.33636740993" height="609.3893945683217" fill="black" filter="url(#f1)"/><rect x="-8" y="-8" opacity="0.4" width="3656.33636740993" height="609.3893945683217" fill="black" filter="url(#f1)"/><rect x="0" y="0" width="3656.33636740993" height="609.3893945683217" fill="#FFF"/></g></svg>