<svg width="32" height="32" viewBox="0 0 32 32" fill="none" xmlns="http://www.w3.org/2000/svg">
<path d="M14.6875 25.1875V26.5C14.6875 26.8481 14.5492 27.1819 14.3031 27.4281C14.0569 27.6742 13.7231 27.8125 13.375 27.8125H10.75V29.125C10.75 29.8212 10.4734 30.4889 9.98115 30.9812C9.48887 31.4734 8.82119 31.75 8.125 31.75H2.875C2.17881 31.75 1.51113 31.4734 1.01884 30.9812C0.526562 30.4889 0.25 29.8212 0.25 29.125V25.7309C0.250149 25.0347 0.526808 24.3672 1.01912 23.875L11.1779 13.7163C10.555 11.6011 10.6137 9.34358 11.3458 7.26372C12.0779 5.18386 13.4462 3.38726 15.2567 2.12865C17.0671 0.870044 19.2278 0.213314 21.4324 0.251582C23.637 0.28985 25.7736 1.02117 27.5393 2.34186C29.305 3.66254 30.6101 5.50555 31.2695 7.60956C31.929 9.71357 31.9094 11.9718 31.2135 14.064C30.5175 16.1563 29.1806 17.9763 27.3923 19.2661C25.6039 20.5559 23.4549 21.25 21.25 21.25H18.6224V23.875C18.6224 24.2231 18.4841 24.5569 18.238 24.8031C17.9918 25.0492 17.658 25.1875 17.3099 25.1875H14.6849H14.6875ZM23.875 10.75C24.5712 10.75 25.2389 10.4734 25.7312 9.98116C26.2234 9.48887 26.5 8.82119 26.5 8.125C26.5 7.42881 26.2234 6.76113 25.7312 6.26885C25.2389 5.77656 24.5712 5.5 23.875 5.5C23.1788 5.5 22.5111 5.77656 22.0188 6.26885C21.5266 6.76113 21.25 7.42881 21.25 8.125C21.25 8.82119 21.5266 9.48887 22.0188 9.98116C22.5111 10.4734 23.1788 10.75 23.875 10.75Z" fill="#185CFF"/>
</svg>
